<?xml version="1.0" encoding="UTF-8"?>
<svg width="1024px" height="1024px" viewBox="0 0 1024 1024" version="1.1" xmlns="http://www.w3.org/2000/svg" xmlns:xlink="http://www.w3.org/1999/xlink">
    <!-- Generator: Sketch 47.1 (45422) - http://www.bohemiancoding.com/sketch -->
    <title>Oval</title>
    <desc>Created with Sketch.</desc>
    <defs></defs>
    <g id="Page-1" stroke="none" stroke-width="1" fill="none" fill-rule="evenodd">
        <circle id="Oval" fill="#000000" cx="512" cy="512" r="512"></circle>
        <g id="Group" transform="translate(95.000000, 124.000000)" fill-rule="nonzero" fill="#FFFFFF">
            <path d="M529.067669,764.231557 C491.533835,775.307377 454,780.604508 416.947368,780.604508 C249.007519,780.604508 94.0601504,671.290984 43.0526316,502.745902 C38.2406015,486.372951 47.3834586,469.518443 63.7443609,464.702869 C80.1052632,459.887295 96.9473684,469.036885 101.759398,485.409836 C154.210526,659.252049 337.548872,757.971311 511.263158,705.481557 C684.977444,652.991803 783.62406,469.518443 731.172932,295.67623 C678.721805,121.834016 495.383459,23.1147541 321.669173,75.6045082 C221.578947,105.942623 143.142857,181.065574 107.533835,277.377049 L68.075188,290.379098 L151.804511,290.379098 L41.1278195,382.356557 L3.59398496,241.741803 L47.3834586,265.338115 C87.8045113,146.393443 182.601504,53.4528689 304.345865,16.8545082 C510.300752,-45.2663934 728.285714,72.2336066 790.360902,278.340164 C852.43609,483.965164 735.022556,702.110656 529.067669,764.231557 Z" id="Shape"></path>
        </g>
        <polygon id="Shape" fill="#FFFFFF" fill-rule="nonzero" points="711.520177 659.668399 512.493688 374 313 659.668399 567.623091 547.458226 512.493688 601.693143"></polygon>
    </g>
</svg>